. 
  
http://www.torrentday.com/        :     The Hottest Private Tracker On The Net!!!
 
http://www.torrentday.com          :     Once & For all ;)


               www . TorrentDay . Com 

(((((((((((((= Enjoy No RAR releases =))))))))))))))))))))


...................................NFO:....................................

.[img]http://img534.imageshack.us/img534/8776/frankieandaliceposter01.jpg[/img]

Frankie And Alice 2010 DVDSCR XVID HQ Hive-CM8



[b]Thx Hive

CM8 Doing It Right The First Time :D

Source: Frankie And Alice 2010 DVDSCR NTSC READ NFO DVDR-KART3LDVD
thx

Encode:
finally i got the source dvd-r to make a nicer version
added brightness,sharpness,chroma,rgb,denoise.

Video: 720x304 @bitrate 1500 2pass
Audio: English AC3 2.0 Stereo
Sample: yes included[/b]
 
http://www.imdb.com/title/tt1221208/


General
Complete name                    : Frankie.And.Alice.2010.DVDSCR.XVID.HQ.Hive-CM8.avi
Format                           : AVI
Format/Info                      : Audio Video Interleave
File size                        : 1.25 GiB
Duration                         : 1h 41mn
Overall bit rate                 : 1 765 Kbps
Writing application              : Nandub v1.0rc2
Writing library                  : Nandub build 1853/release

Video
ID                               : 0
Format                           : MPEG-4 Visual
Format profile                   : Advanced Simple@L5
Format settings, BVOP            : Yes
Format settings, QPel            : Yes
Format settings, GMC             : No warppoints
Format settings, Matrix          : Default (H.263)
Muxing mode                      : Packed bitstream
Codec ID                         : XVID
Codec ID/Hint                    : XviD
Duration                         : 1h 41mn
Bit rate                         : 1 499 Kbps
Width                            : 720 pixels
Height                           : 304 pixels
Display aspect ratio             : 2.35:1
Frame rate                       : 23.976 fps
Color space                      : YUV
Chroma subsampling               : 4:2:0
Bit depth                        : 8 bits
Scan type                        : Progressive
Bits/(Pixel*Frame)               : 0.286
Stream size                      : 1.06 GiB (85%)
Writing library                  : XviD 1.2.1 (UTC 2008-12-04)

Audio
ID                               : 1
Format                           : AC-3
Format/Info                      : Audio Coding 3
Mode extension                   : CM (complete main)
Codec ID                         : 2000
Duration                         : 1h 41mn
Bit rate mode                    : Constant
Bit rate                         : 256 Kbps
Channel(s)                       : 2 channels
Channel positions                : Front: L R
Sampling rate                    : 48.0 KHz
Bit depth                        : 16 bits
Stream size                      : 186 MiB (15%)
Alignment                        : Split accross interleaves
Interleave, duration             : 42 ms (1.00 video frame)
Interleave, preload duration     : 500 ms




Halle Berry - (Frankie Murdoch)
Stellan Skarsgrd - (Oz)
Phylicia Rashad - (Edna)
Chandra Wilson - (Maxine)
Alex Diakun - (Hal)



A drama centered on a young woman with multiple personality
disorder who struggles to remain her true self and not give
in to her racist alter-personality



[img]http://img199.imageshack.us/img199/399/fffrrfrr.png[/img]
[img]http://img401.imageshack.us/img401/7568/ffrfrr.png[/img]
[img]http://img13.imageshack.us/img13/3144/ffrr.png[/img]
[img]http://img200.imageshack.us/img200/1328/29975133.png[/img]
[img]http://img37.imageshack.us/img37/2961/frffrffrfrfrfrfrrr.png[/img]
[img]http://img692.imageshack.us/img692/1921/frffrffrfrfrrr.png[/img]
[img]http://img820.imageshack.us/img820/3146/frffrffrfrrr.png[/img]
[img]http://img201.imageshack.us/img201/8422/frffrffrrr.png[/img]
[img]http://img156.imageshack.us/img156/922/frffrfrr.png[/img]
[img]http://img832.imageshack.us/img832/9072/frffrffrfrfrfrrr.png[/img]





Greetz

iNK,LUSi,,MAGNET,CLASSiFiED,THC,LEGi0N,IMAGiNE,ViSiON,WBZ,FLAWL3SS,NOVA
Rapeseed,D2U,SAFC,goldadvance,MEMORY100,KaN1vE,Unevano,Pinnz,Wayne,Mr Hive
and all P2P groups 
Great Work Guys :D